<svg version="1.1" xmlns="http://www.w3.org/2000/svg" xmlns:xlink="http://www.w3.org/1999/xlink" width="457" height="342"><defs><clipPath id="vomaaiLxihQq"><path fill="none" stroke="none" d=" M 0 0 L 457 0 L 457 342 L 0 342 L 0 0 Z"/></clipPath></defs><g transform="scale(1,1)" clip-path="url(#vomaaiLxihQq)"><g transform="translate(-280,-286)"><rect fill="rgb(255,255,255)" stroke="none" x="0" y="0" width="1156" height="801" fill-opacity="1"/><path fill="none" stroke="rgb(21,101,192)" paint-order="fill stroke markers" d=" M 576.0384428208649 462.6494461645723 C 576.0384428208649 537.3035150006076 515.5193625541821 597.8225952672906 440.865293718147 597.8225952672906 C 366.2112248821118 597.8225952672906 305.692144615429 537.3035150006076 305.692144615429 462.6494461645723 C 305.692144615429 387.9953773285371 366.2112248821118 327.4762970618541 440.865293718147 327.4762970618541 C 515.5193625541821 327.4762970618541 576.0384428208649 387.9953773285371 576.0384428208649 462.6494461645723 Z" stroke-opacity="0.8" stroke-linecap="round" stroke-linejoin="round" stroke-miterlimit="10" stroke-width="2.5"/><path fill="none" stroke="rgb(21,101,192)" paint-order="fill stroke markers" d=" M 711.2115919235828 462.6494461645723 C 711.2115919235828 537.3035150006076 650.6925116569 597.8225952672906 576.0384428208649 597.8225952672906 C 501.3843739848298 597.8225952672906 440.865293718147 537.3035150006076 440.865293718147 462.6494461645723 C 440.865293718147 387.9953773285371 501.3843739848298 327.4762970618541 576.0384428208649 327.4762970618541 C 650.6925116569 327.4762970618541 711.2115919235828 387.9953773285371 711.2115919235828 462.6494461645723 Z" stroke-opacity="0.8" stroke-linecap="round" stroke-linejoin="round" stroke-miterlimit="10" stroke-width="2.5"/><path fill="none" stroke="rgb(211,47,47)" paint-order="fill stroke markers" d=" M 500.0984714148436 462.64944616457234 C 500.0984714148436 495.3630268904754 473.57887444405 521.882623861269 440.865293718147 521.882623861269 C 408.1517129922439 521.882623861269 381.6321160214503 495.3630268904754 381.6321160214503 462.64944616457234 C 381.6321160214503 429.9358654386692 408.1517129922439 403.41626846787557 440.865293718147 403.41626846787557 C 473.57887444405 403.41626846787557 500.0984714148436 429.9358654386692 500.0984714148436 462.64944616457234 Z" stroke-opacity="0.8" stroke-linejoin="round" stroke-miterlimit="10" stroke-width="2.5" stroke-dasharray="10.5,4,2.5,4"/><path fill="none" stroke="rgb(46,125,50)" paint-order="fill stroke markers" d=" M 453.84334950562544 806 L 453.84334950562544 -5" stroke-opacity="0.8" stroke-linejoin="round" stroke-miterlimit="10" stroke-width="2.5" stroke-dasharray="10.5,4,2.5,4"/><path fill="none" stroke="rgb(0,0,0)" paint-order="fill stroke markers" d=" M 448.68945791237195 806 L 448.68945791237195 -5" stroke-opacity="0.8" stroke-linecap="round" stroke-linejoin="round" stroke-miterlimit="10" stroke-width="2.5"/><path fill="rgb(21,101,192)" stroke="none" paint-order="stroke fill markers" d=" M 445.865293718147 462.64944616457234 C 445.865293718147 465.4108699137263 443.6267174673009 467.64944616457234 440.865293718147 467.64944616457234 C 438.103869968993 467.64944616457234 435.865293718147 465.4108699137263 435.865293718147 462.64944616457234 C 435.865293718147 459.8880224154184 438.103869968993 457.64944616457234 440.865293718147 457.64944616457234 C 443.6267174673009 457.64944616457234 445.865293718147 459.8880224154184 445.865293718147 462.64944616457234 Z" fill-opacity="1"/><path fill="rgb(21,101,192)" stroke="none" paint-order="stroke fill markers" d=" M 581.0384428208649 462.64944616457234 C 581.0384428208649 465.4108699137263 578.7998665700189 467.64944616457234 576.0384428208649 467.64944616457234 C 573.2770190717109 467.64944616457234 571.0384428208649 465.4108699137263 571.0384428208649 462.64944616457234 C 571.0384428208649 459.8880224154184 573.2770190717109 457.64944616457234 576.0384428208649 457.64944616457234 C 578.7998665700189 457.64944616457234 581.0384428208649 459.8880224154184 581.0384428208649 462.64944616457234 Z" fill-opacity="1"/><path fill="rgb(46,125,50)" stroke="none" paint-order="stroke fill markers" d=" M 458.84334950562544 520.443385362602 C 458.84334950562544 523.204809111756 456.6047732547794 525.443385362602 453.84334950562544 525.443385362602 C 451.0819257564715 525.443385362602 448.84334950562544 523.204809111756 448.84334950562544 520.443385362602 C 448.84334950562544 517.681961613448 451.0819257564715 515.443385362602 453.84334950562544 515.443385362602 C 456.6047732547794 515.443385362602 458.84334950562544 517.681961613448 458.84334950562544 520.443385362602 Z" fill-opacity="1"/><path fill="rgb(46,125,50)" stroke="none" paint-order="stroke fill markers" d=" M 458.84334950562544 404.8555069665427 C 458.84334950562544 407.61693071569664 456.6047732547794 409.8555069665427 453.84334950562544 409.8555069665427 C 451.0819257564715 409.8555069665427 448.84334950562544 407.61693071569664 448.84334950562544 404.8555069665427 C 448.84334950562544 402.09408321738874 451.0819257564715 399.8555069665427 453.84334950562544 399.8555069665427 C 456.6047732547794 399.8555069665427 458.84334950562544 402.09408321738874 458.84334950562544 404.8555069665427 Z" fill-opacity="1"/><path fill="rgb(0,0,0)" stroke="none" paint-order="stroke fill markers" d=" M 489.0192807749901 386.78164911154005 C 489.0192807749901 389.543072860694 486.780704524144 391.78164911154005 484.0192807749901 391.78164911154005 C 481.25785702583613 391.78164911154005 479.0192807749901 389.543072860694 479.0192807749901 386.78164911154005 C 479.0192807749901 384.0202253623861 481.25785702583613 381.78164911154005 484.0192807749901 381.78164911154005 C 486.780704524144 381.78164911154005 489.0192807749901 384.0202253623861 489.0192807749901 386.78164911154005 Z" fill-opacity="1"/><path fill="rgb(211,47,47)" stroke="none" paint-order="stroke fill markers" d=" M 494.64251748208744 429.0436165820293 C 494.64251748208744 431.80504033118325 492.4039412312414 434.0436165820293 489.64251748208744 434.0436165820293 C 486.8810937329335 434.0436165820293 484.64251748208744 431.80504033118325 484.64251748208744 429.0436165820293 C 484.64251748208744 426.28219283287535 486.8810937329335 424.0436165820293 489.64251748208744 424.0436165820293 C 492.4039412312414 424.0436165820293 494.64251748208744 426.28219283287535 494.64251748208744 429.0436165820293 Z" fill-opacity="1"/><path fill="rgb(0,0,0)" stroke="none" paint-order="stroke fill markers" d=" M 521.6546403874951 473.3908726985728 C 521.6546403874951 476.15229644772677 519.4160641366491 478.3908726985728 516.6546403874951 478.3908726985728 C 513.8932166383411 478.3908726985728 511.6546403874951 476.15229644772677 511.6546403874951 473.3908726985728 C 511.6546403874951 470.6294489494189 513.8932166383411 468.3908726985728 516.6546403874951 468.3908726985728 C 519.4160641366491 468.3908726985728 521.6546403874951 470.6294489494189 521.6546403874951 473.3908726985728 Z" fill-opacity="1"/><path fill="rgb(0,0,0)" stroke="none" paint-order="stroke fill markers" d=" M 536.717114054805 426.9482455577002 C 536.717114054805 429.70966930685415 534.4785378039591 431.9482455577002 531.717114054805 431.9482455577002 C 528.955690305651 431.9482455577002 526.717114054805 429.70966930685415 526.717114054805 426.9482455577002 C 526.717114054805 424.18682180854626 528.955690305651 421.9482455577002 531.717114054805 421.9482455577002 C 534.4785378039591 421.9482455577002 536.717114054805 424.18682180854626 536.717114054805 426.9482455577002 Z" fill-opacity="1"/><path fill="rgb(0,0,0)" stroke="none" paint-order="stroke fill markers" d=" M 542.9931447495176 524.8543243952155 C 542.9931447495176 527.6157481443695 540.7545684986716 529.8543243952155 537.9931447495176 529.8543243952155 C 535.2317210003636 529.8543243952155 532.9931447495176 527.6157481443695 532.9931447495176 524.8543243952155 C 532.9931447495176 522.0929006460615 535.2317210003636 519.8543243952155 537.9931447495176 519.8543243952155 C 540.7545684986716 519.8543243952155 542.9931447495176 522.0929006460615 542.9931447495176 524.8543243952155 Z" fill-opacity="1"/><path fill="rgb(0,0,0)" stroke="none" paint-order="stroke fill markers" d=" M 489.0192807749901 532.3855612288705 C 489.0192807749901 535.1469849780245 486.780704524144 537.3855612288705 484.0192807749901 537.3855612288705 C 481.25785702583613 537.3855612288705 479.0192807749901 535.1469849780245 479.0192807749901 532.3855612288705 C 479.0192807749901 529.6241374797165 481.25785702583613 527.3855612288705 484.0192807749901 527.3855612288705 C 486.780704524144 527.3855612288705 489.0192807749901 529.6241374797165 489.0192807749901 532.3855612288705 Z" fill-opacity="1"/><path fill="rgb(0,0,0)" stroke="none" paint-order="stroke fill markers" d=" M 507.8473728591275 543.682416479353 C 507.8473728591275 546.443840228507 505.60879660828147 548.682416479353 502.8473728591275 548.682416479353 C 500.08594910997357 548.682416479353 497.8473728591275 546.443840228507 497.8473728591275 543.682416479353 C 497.8473728591275 540.920992730199 500.08594910997357 538.682416479353 502.8473728591275 538.682416479353 C 505.60879660828147 538.682416479353 507.8473728591275 540.920992730199 507.8473728591275 543.682416479353 Z" fill-opacity="1"/><g transform="scale(19,19)"><g transform="translate(21.736842105263158,24.483186578947368)"><path fill="rgb(21,101,192)" stroke="none" paint-order="stroke fill markers" d=" M 0.264 -0.082 Q 0.201 0.011 0.11900000000000001 0.011 Q 0.032 0.011 0.016 -0.089 Q 0.013000000000000001 -0.109 0.013000000000000001 -0.131 Q 0.013000000000000001 -0.22 0.051000000000000004 -0.311 Q 0.082 -0.382 0.112 -0.419 Q 0.122 -0.431 0.127 -0.431 Q 0.139 -0.431 0.139 -0.419 Q 0.139 -0.41400000000000003 0.129 -0.4 Q 0.045 -0.28 0.045 -0.17500000000000002 Q 0.045 -0.08 0.109 -0.064 Q 0.12 -0.061 0.133 -0.061 Q 0.201 -0.061 0.257 -0.138 Q 0.264 -0.145 0.266 -0.165 Q 0.276 -0.23800000000000002 0.28700000000000003 -0.266 Q 0.3 -0.291 0.315 -0.291 Q 0.334 -0.291 0.336 -0.268 Q 0.336 -0.24 0.308 -0.168 Q 0.306 -0.161 0.303 -0.155 Q 0.297 -0.14400000000000002 0.297 -0.139 Q 0.297 -0.111 0.317 -0.084 Q 0.335 -0.061 0.372 -0.061 Q 0.449 -0.061 0.511 -0.14400000000000002 Q 0.562 -0.214 0.562 -0.28 Q 0.562 -0.331 0.527 -0.367 Q 0.512 -0.38 0.512 -0.394 Q 0.512 -0.419 0.539 -0.435 Q 0.55 -0.442 0.562 -0.442 Q 0.599 -0.442 0.604 -0.388 Q 0.605 -0.377 0.605 -0.371 Q 0.605 -0.307 0.5750000000000001 -0.213 Q 0.55 -0.136 0.511 -0.082 Q 0.443 0.011 0.358 0.011 Q 0.277 0.011 0.264 -0.082 Z"/></g><g transform="translate(22.359297105263156,24.633186578947367) scale(0.7,0.7)"><path fill="rgb(21,101,192)" stroke="none" paint-order="stroke fill markers" d=" M 0.397 -0.625 Q 0.397 -0.597 0.369 -0.58 Q 0.356 -0.5720000000000001 0.343 -0.5720000000000001 Q 0.313 -0.5720000000000001 0.307 -0.599 L 0.307 -0.6 Q 0.306 -0.604 0.306 -0.608 Q 0.306 -0.639 0.337 -0.655 Q 0.34800000000000003 -0.661 0.359 -0.661 Q 0.389 -0.661 0.396 -0.634 Q 0.397 -0.629 0.397 -0.625 M 0.196 0.05 L 0.196 0.05 L 0.29 -0.323 Q 0.297 -0.353 0.297 -0.374 Q 0.297 -0.42 0.265 -0.42 Q 0.20400000000000001 -0.42 0.155 -0.332 Q 0.146 -0.316 0.139 -0.298 Q 0.127 -0.279 0.121 -0.278 Q 0.109 -0.278 0.109 -0.28800000000000003 Q 0.109 -0.301 0.135 -0.34500000000000003 Q 0.193 -0.442 0.268 -0.442 Q 0.324 -0.442 0.34900000000000003 -0.397 Q 0.36 -0.376 0.36 -0.35000000000000003 Q 0.36 -0.333 0.355 -0.313 L 0.263 0.053 Q 0.241 0.14 0.159 0.183 Q 0.117 0.20500000000000002 0.075 0.20500000000000002 Q 0.012 0.20500000000000002 -0.007 0.167 Q -0.013000000000000001 0.156 -0.013000000000000001 0.14300000000000002 Q -0.013000000000000001 0.105 0.021 0.09 Q 0.031 0.08600000000000001 0.041 0.08600000000000001 Q 0.07200000000000001 0.08600000000000001 0.078 0.113 Q 0.079 0.117 0.079 0.121 Q 0.079 0.151 0.051000000000000004 0.167 Q 0.043000000000000003 0.17200000000000001 0.034 0.17400000000000002 Q 0.052000000000000005 0.183 0.073 0.183 Q 0.132 0.183 0.17200000000000001 0.111 Q 0.188 0.083 0.196 0.05 Z"/></g></g><g transform="scale(19,19)"><g transform="translate(30.894736842105264,24.535818157894738)"><path fill="rgb(21,101,192)" stroke="none" paint-order="stroke fill markers" d=" M 0.264 -0.082 Q 0.201 0.011 0.11900000000000001 0.011 Q 0.032 0.011 0.016 -0.089 Q 0.013000000000000001 -0.109 0.013000000000000001 -0.131 Q 0.013000000000000001 -0.22 0.051000000000000004 -0.311 Q 0.082 -0.382 0.112 -0.419 Q 0.122 -0.431 0.127 -0.431 Q 0.139 -0.431 0.139 -0.419 Q 0.139 -0.41400000000000003 0.129 -0.4 Q 0.045 -0.28 0.045 -0.17500000000000002 Q 0.045 -0.08 0.109 -0.064 Q 0.12 -0.061 0.133 -0.061 Q 0.201 -0.061 0.257 -0.138 Q 0.264 -0.145 0.266 -0.165 Q 0.276 -0.23800000000000002 0.28700000000000003 -0.266 Q 0.3 -0.291 0.315 -0.291 Q 0.334 -0.291 0.336 -0.268 Q 0.336 -0.24 0.308 -0.168 Q 0.306 -0.161 0.303 -0.155 Q 0.297 -0.14400000000000002 0.297 -0.139 Q 0.297 -0.111 0.317 -0.084 Q 0.335 -0.061 0.372 -0.061 Q 0.449 -0.061 0.511 -0.14400000000000002 Q 0.562 -0.214 0.562 -0.28 Q 0.562 -0.331 0.527 -0.367 Q 0.512 -0.38 0.512 -0.394 Q 0.512 -0.419 0.539 -0.435 Q 0.55 -0.442 0.562 -0.442 Q 0.599 -0.442 0.604 -0.388 Q 0.605 -0.377 0.605 -0.371 Q 0.605 -0.307 0.5750000000000001 -0.213 Q 0.55 -0.136 0.511 -0.082 Q 0.443 0.011 0.358 0.011 Q 0.277 0.011 0.264 -0.082 Z"/></g><g transform="translate(31.517191842105262,24.685818157894737) scale(0.7,0.7)"><path fill="rgb(21,101,192)" stroke="none" paint-order="stroke fill markers" d=" M 0.20600000000000002 -0.4 L 0.132 -0.105 Q 0.126 -0.08 0.126 -0.057 Q 0.126 -0.011 0.157 -0.011 Q 0.223 -0.011 0.273 -0.108 L 0.28700000000000003 -0.139 Q 0.293 -0.152 0.302 -0.153 Q 0.314 -0.153 0.314 -0.14300000000000002 Q 0.314 -0.13 0.28800000000000003 -0.08600000000000001 Q 0.23 0.011 0.155 0.011 Q 0.097 0.011 0.073 -0.037 Q 0.063 -0.057 0.063 -0.081 Q 0.063 -0.1 0.124 -0.34 L 0.139 -0.4 L 0.051000000000000004 -0.4 Q 0.026000000000000002 -0.4 0.024 -0.40800000000000003 L 0.023 -0.40800000000000003 L 0.023 -0.41200000000000003 Q 0.023 -0.429 0.039 -0.431 L 0.053 -0.431 L 0.147 -0.431 L 0.186 -0.59 Q 0.195 -0.625 0.226 -0.626 Q 0.252 -0.626 0.255 -0.599 Q 0.255 -0.593 0.214 -0.431 L 0.302 -0.431 Q 0.328 -0.431 0.33 -0.42 Q 0.33 -0.402 0.314 -0.4 L 0.313 -0.4 L 0.3 -0.4 L 0.20600000000000002 -0.4 Z"/></g></g><g transform="scale(19,19)"><g transform="translate(24.57894736842105,23.430555)"><path fill="rgb(211,47,47)" stroke="none" paint-order="stroke fill markers" d=" M 0.264 -0.082 Q 0.201 0.011 0.11900000000000001 0.011 Q 0.032 0.011 0.016 -0.089 Q 0.013000000000000001 -0.109 0.013000000000000001 -0.131 Q 0.013000000000000001 -0.22 0.051000000000000004 -0.311 Q 0.082 -0.382 0.112 -0.419 Q 0.122 -0.431 0.127 -0.431 Q 0.139 -0.431 0.139 -0.419 Q 0.139 -0.41400000000000003 0.129 -0.4 Q 0.045 -0.28 0.045 -0.17500000000000002 Q 0.045 -0.08 0.109 -0.064 Q 0.12 -0.061 0.133 -0.061 Q 0.201 -0.061 0.257 -0.138 Q 0.264 -0.145 0.266 -0.165 Q 0.276 -0.23800000000000002 0.28700000000000003 -0.266 Q 0.3 -0.291 0.315 -0.291 Q 0.334 -0.291 0.336 -0.268 Q 0.336 -0.24 0.308 -0.168 Q 0.306 -0.161 0.303 -0.155 Q 0.297 -0.14400000000000002 0.297 -0.139 Q 0.297 -0.111 0.317 -0.084 Q 0.335 -0.061 0.372 -0.061 Q 0.449 -0.061 0.511 -0.14400000000000002 Q 0.562 -0.214 0.562 -0.28 Q 0.562 -0.331 0.527 -0.367 Q 0.512 -0.38 0.512 -0.394 Q 0.512 -0.419 0.539 -0.435 Q 0.55 -0.442 0.562 -0.442 Q 0.599 -0.442 0.604 -0.388 Q 0.605 -0.377 0.605 -0.371 Q 0.605 -0.307 0.5750000000000001 -0.213 Q 0.55 -0.136 0.511 -0.082 Q 0.443 0.011 0.358 0.011 Q 0.277 0.011 0.264 -0.082 Z"/></g><g transform="translate(25.20140236842105,23.580554999999997) scale(0.7,0.7)"><path fill="rgb(211,47,47)" stroke="none" paint-order="stroke fill markers" d=" M 0.088 -0.059000000000000004 L 0.088 -0.059000000000000004 L 0.146 -0.29 Q 0.162 -0.354 0.162 -0.374 Q 0.162 -0.42 0.131 -0.42 Q 0.09 -0.42 0.064 -0.325 Q 0.061 -0.314 0.058 -0.301 Q 0.047 -0.279 0.041 -0.278 Q 0.029 -0.278 0.029 -0.28800000000000003 Q 0.029 -0.304 0.047 -0.355 Q 0.054 -0.373 0.06 -0.385 Q 0.084 -0.434 0.12 -0.441 Q 0.127 -0.442 0.134 -0.442 Q 0.19 -0.442 0.215 -0.394 Q 0.221 -0.383 0.224 -0.37 Q 0.225 -0.368 0.225 -0.365 Q 0.28300000000000003 -0.437 0.353 -0.442 Q 0.40900000000000003 -0.442 0.429 -0.403 Q 0.436 -0.391 0.436 -0.377 Q 0.436 -0.338 0.403 -0.323 Q 0.392 -0.318 0.381 -0.318 Q 0.35000000000000003 -0.318 0.34400000000000003 -0.34500000000000003 Q 0.343 -0.34900000000000003 0.343 -0.353 Q 0.343 -0.386 0.377 -0.402 L 0.378 -0.403 Q 0.386 -0.406 0.395 -0.40800000000000003 L 0.375 -0.417 Q 0.362 -0.419 0.353 -0.42 Q 0.311 -0.42 0.273 -0.387 Q 0.242 -0.359 0.22 -0.313 Q 0.218 -0.308 0.217 -0.305 L 0.185 -0.17500000000000002 L 0.145 -0.017 Q 0.136 0.009000000000000001 0.108 0.011 Q 0.083 0.006 0.079 -0.016 Q 0.079 -0.014 0.088 -0.059000000000000004 Z"/></g></g><g transform="scale(19,19)"><g transform="translate(22.263157894736842,20.63070042105263)"><path fill="rgb(46,125,50)" stroke="none" paint-order="stroke fill markers" d=" M 0.427 -0.607 L 0.294 -0.076 Q 0.29 -0.061 0.29 -0.055 Q 0.29 -0.04 0.306 -0.036000000000000004 L 0.307 -0.036000000000000004 Q 0.314 -0.034 0.327 -0.033 Q 0.353 -0.031 0.391 -0.031 Q 0.422 -0.031 0.424 -0.025 Q 0.425 -0.023 0.425 -0.02 Q 0.421 -0.001 0.403 0 L 0.317 -0.002 L 0.316 -0.002 L 0.23500000000000001 -0.003 L 0.233 -0.003 L 0.15 -0.002 L 0.148 -0.002 L 0.067 0 L 0.066 0 Q 0.049 0 0.049 -0.012 Q 0.049 -0.027 0.06 -0.03 Q 0.067 -0.031 0.091 -0.031 Q 0.18 -0.031 0.197 -0.048 Q 0.203 -0.054 0.20700000000000002 -0.066 Q 0.20700000000000002 -0.068 0.20800000000000002 -0.07100000000000001 L 0.20800000000000002 -0.073 L 0.209 -0.073 L 0.209 -0.074 Q 0.209 -0.075 0.21 -0.079 L 0.34400000000000003 -0.613 Q 0.34800000000000003 -0.625 0.34800000000000003 -0.634 Q 0.34800000000000003 -0.643 0.339 -0.645 Q 0.333 -0.646 0.32 -0.646 L 0.281 -0.646 Q 0.178 -0.646 0.14 -0.623 Q 0.11900000000000001 -0.611 0.10300000000000001 -0.586 L 0.10200000000000001 -0.585 L 0.10200000000000001 -0.584 L 0.101 -0.584 Q 0.08 -0.551 0.053 -0.47300000000000003 Q 0.046 -0.454 0.041 -0.453 Q 0.039 -0.452 0.036000000000000004 -0.452 Q 0.024 -0.452 0.024 -0.463 Q 0.024 -0.46900000000000003 0.03 -0.481 L 0.09 -0.657 Q 0.096 -0.674 0.10400000000000001 -0.676 Q 0.109 -0.677 0.122 -0.677 L 0.677 -0.677 Q 0.7020000000000001 -0.677 0.704 -0.666 Q 0.704 -0.657 0.7020000000000001 -0.649 L 0.675 -0.47500000000000003 Q 0.672 -0.454 0.66 -0.452 Q 0.648 -0.452 0.648 -0.465 Q 0.648 -0.47200000000000003 0.651 -0.484 Q 0.659 -0.536 0.659 -0.5640000000000001 Q 0.659 -0.622 0.618 -0.637 Q 0.592 -0.646 0.513 -0.646 Q 0.459 -0.646 0.45 -0.644 Q 0.437 -0.641 0.431 -0.622 L 0.431 -0.621 Q 0.429 -0.616 0.427 -0.607 Z"/></g><g transform="translate(22.84753389473684,20.78070042105263) scale(0.7,0.7)"><path fill="rgb(46,125,50)" stroke="none" paint-order="stroke fill markers" d=" M 0.294 -0.64 L 0.294 -0.079 Q 0.294 -0.049 0.306 -0.041 Q 0.323 -0.031 0.387 -0.031 L 0.419 -0.031 L 0.419 0 Q 0.384 -0.003 0.257 -0.003 Q 0.13 -0.003 0.095 0 L 0.095 -0.031 L 0.127 -0.031 Q 0.20400000000000001 -0.031 0.215 -0.049 L 0.216 -0.05 Q 0.22 -0.058 0.22 -0.079 L 0.22 -0.597 Q 0.168 -0.5710000000000001 0.089 -0.5710000000000001 L 0.089 -0.602 Q 0.209 -0.602 0.271 -0.666 Q 0.29 -0.666 0.293 -0.659 L 0.293 -0.659 L 0.293 -0.658 Q 0.294 -0.655 0.294 -0.64 Z"/></g></g><g transform="scale(19,19)"><g transform="translate(22.157894736842106,28.63070042105263)"><path fill="rgb(46,125,50)" stroke="none" paint-order="stroke fill markers" d=" M 0.427 -0.607 L 0.294 -0.076 Q 0.29 -0.061 0.29 -0.055 Q 0.29 -0.04 0.306 -0.036000000000000004 L 0.307 -0.036000000000000004 Q 0.314 -0.034 0.327 -0.033 Q 0.353 -0.031 0.391 -0.031 Q 0.422 -0.031 0.424 -0.025 Q 0.425 -0.023 0.425 -0.02 Q 0.421 -0.001 0.403 0 L 0.317 -0.002 L 0.316 -0.002 L 0.23500000000000001 -0.003 L 0.233 -0.003 L 0.15 -0.002 L 0.148 -0.002 L 0.067 0 L 0.066 0 Q 0.049 0 0.049 -0.012 Q 0.049 -0.027 0.06 -0.03 Q 0.067 -0.031 0.091 -0.031 Q 0.18 -0.031 0.197 -0.048 Q 0.203 -0.054 0.20700000000000002 -0.066 Q 0.20700000000000002 -0.068 0.20800000000000002 -0.07100000000000001 L 0.20800000000000002 -0.073 L 0.209 -0.073 L 0.209 -0.074 Q 0.209 -0.075 0.21 -0.079 L 0.34400000000000003 -0.613 Q 0.34800000000000003 -0.625 0.34800000000000003 -0.634 Q 0.34800000000000003 -0.643 0.339 -0.645 Q 0.333 -0.646 0.32 -0.646 L 0.281 -0.646 Q 0.178 -0.646 0.14 -0.623 Q 0.11900000000000001 -0.611 0.10300000000000001 -0.586 L 0.10200000000000001 -0.585 L 0.10200000000000001 -0.584 L 0.101 -0.584 Q 0.08 -0.551 0.053 -0.47300000000000003 Q 0.046 -0.454 0.041 -0.453 Q 0.039 -0.452 0.036000000000000004 -0.452 Q 0.024 -0.452 0.024 -0.463 Q 0.024 -0.46900000000000003 0.03 -0.481 L 0.09 -0.657 Q 0.096 -0.674 0.10400000000000001 -0.676 Q 0.109 -0.677 0.122 -0.677 L 0.677 -0.677 Q 0.7020000000000001 -0.677 0.704 -0.666 Q 0.704 -0.657 0.7020000000000001 -0.649 L 0.675 -0.47500000000000003 Q 0.672 -0.454 0.66 -0.452 Q 0.648 -0.452 0.648 -0.465 Q 0.648 -0.47200000000000003 0.651 -0.484 Q 0.659 -0.536 0.659 -0.5640000000000001 Q 0.659 -0.622 0.618 -0.637 Q 0.592 -0.646 0.513 -0.646 Q 0.459 -0.646 0.45 -0.644 Q 0.437 -0.641 0.431 -0.622 L 0.431 -0.621 Q 0.429 -0.616 0.427 -0.607 Z"/></g><g transform="translate(22.742270736842105,28.78070042105263) scale(0.7,0.7)"><path fill="rgb(46,125,50)" stroke="none" paint-order="stroke fill markers" d=" M 0.449 -0.17400000000000002 L 0.449 -0.17400000000000002 L 0.421 0 L 0.05 0 Q 0.05 -0.025 0.056 -0.032 L 0.061 -0.037 L 0.253 -0.251 Q 0.358 -0.369 0.358 -0.47200000000000003 Q 0.358 -0.561 0.304 -0.607 L 0.303 -0.608 L 0.302 -0.608 Q 0.27 -0.635 0.224 -0.635 Q 0.152 -0.635 0.109 -0.5730000000000001 Q 0.097 -0.555 0.089 -0.533 Q 0.092 -0.534 0.10200000000000001 -0.534 Q 0.14200000000000002 -0.534 0.153 -0.498 L 0.153 -0.497 Q 0.155 -0.49 0.155 -0.482 Q 0.155 -0.442 0.117 -0.431 Q 0.109 -0.429 0.10300000000000001 -0.429 Q 0.066 -0.429 0.054 -0.46 Q 0.05 -0.47100000000000003 0.05 -0.485 Q 0.05 -0.562 0.109 -0.617 Q 0.162 -0.666 0.23700000000000002 -0.666 Q 0.34700000000000003 -0.666 0.40800000000000003 -0.592 Q 0.443 -0.549 0.448 -0.49 Q 0.449 -0.481 0.449 -0.47200000000000003 Q 0.449 -0.399 0.394 -0.333 Q 0.365 -0.299 0.304 -0.243 L 0.243 -0.189 L 0.233 -0.18 L 0.127 -0.077 L 0.307 -0.077 Q 0.395 -0.077 0.402 -0.085 Q 0.41200000000000003 -0.099 0.424 -0.17400000000000002 L 0.449 -0.17400000000000002 Z"/></g></g><g transform="scale(19,19)"><g transform="translate(22.736842105263158,16.64108131578947)"><path fill="rgb(0,0,0)" stroke="none" paint-order="stroke fill markers" d=" M 0.14100000000000001 -0.227 L 0.14100000000000001 -0.227 Q 0.076 -0.195 0.057 -0.137 Q 0.052000000000000005 -0.123 0.052000000000000005 -0.11 Q 0.052000000000000005 -0.036000000000000004 0.166 -0.025 Q 0.182 -0.024 0.198 -0.024 Q 0.316 -0.024 0.35100000000000003 -0.077 Q 0.353 -0.079 0.356 -0.084 Q 0.361 -0.091 0.366 -0.091 Q 0.377 -0.091 0.377 -0.081 Q 0.377 -0.065 0.34700000000000003 -0.036000000000000004 Q 0.28600000000000003 0.022 0.189 0.022 Q 0.08700000000000001 0.022 0.044 -0.043000000000000003 Q 0.026000000000000002 -0.07100000000000001 0.026000000000000002 -0.10400000000000001 Q 0.026000000000000002 -0.164 0.081 -0.213 Q 0.097 -0.228 0.117 -0.23900000000000002 Q 0.077 -0.269 0.077 -0.31 Q 0.077 -0.369 0.15 -0.41300000000000003 Q 0.217 -0.453 0.3 -0.453 Q 0.365 -0.453 0.41100000000000003 -0.419 Q 0.429 -0.406 0.429 -0.396 Q 0.429 -0.378 0.41100000000000003 -0.371 Q 0.406 -0.369 0.402 -0.369 Q 0.396 -0.369 0.382 -0.379 Q 0.342 -0.40700000000000003 0.29 -0.40700000000000003 Q 0.193 -0.40700000000000003 0.136 -0.367 Q 0.10200000000000001 -0.342 0.10200000000000001 -0.31 Q 0.10200000000000001 -0.273 0.14200000000000002 -0.252 Q 0.183 -0.271 0.23500000000000001 -0.271 Q 0.306 -0.271 0.308 -0.244 Q 0.308 -0.213 0.227 -0.213 Q 0.17400000000000002 -0.213 0.14100000000000001 -0.227 M 0.17400000000000002 -0.24 Q 0.193 -0.23500000000000001 0.227 -0.23500000000000001 Q 0.265 -0.23500000000000001 0.28200000000000003 -0.243 Q 0.26 -0.249 0.23500000000000001 -0.249 Q 0.2 -0.249 0.17400000000000002 -0.24 Z"/></g></g></g></g></svg>